
<svg width="400" height="400" viewBox="0 0 400 400" xmlns="http://www.w3.org/2000/svg">
  <style>
    .link {
      stroke: #0ff;
      stroke-width: 2;
    }
    .glow {
      stroke: #0ff;
      stroke-width: 4;
      stroke-linecap: round;
      stroke-dasharray: 6 6;
      animation: dash 2s linear infinite;
    }
    @keyframes dash {
      to {
        stroke-dashoffset: -12;
      }
    }
    .node {
      fill: #001F3F;
      stroke: #7FDBFF;
      stroke-width: 2;
    }
    .center {
      fill: #0074D9;
    }
  </style>

  <!-- Central node -->
  <circle class="node center" cx="200" cy="200" r="15"/>

  <!-- Outer nodes -->
  <!-- Placed around a circle -->
  <!-- Clockwise from top -->
  <circle class="node" cx="200" cy="80" r="10"/>
  <circle class="node" cx="310" cy="130" r="10"/>
  <circle class="node" cx="310" cy="270" r="10"/>
  <circle class="node" cx="200" cy="320" r="10"/>
  <circle class="node" cx="90" cy="270" r="10"/>
  <circle class="node" cx="90" cy="130" r="10"/>

  <!-- Lines from center to outer nodes -->
  <line class="glow" x1="200" y1="200" x2="200" y2="80"/>
  <line class="glow" x1="200" y1="200" x2="310" y2="130"/>
  <line class="glow" x1="200" y1="200" x2="310" y2="270"/>
  <line class="glow" x1="200" y1="200" x2="200" y2="320"/>
  <line class="glow" x1="200" y1="200" x2="90" y2="270"/>
  <line class="glow" x1="200" y1="200" x2="90" y2="130"/>

  <!-- Outer ring links -->
  <line class="link" x1="200" y1="80" x2="310" y2="130"/>
  <line class="link" x1="310" y1="130" x2="310" y2="270"/>
  <line class="link" x1="310" y1="270" x2="200" y2="320"/>
  <line class="link" x1="200" y1="320" x2="90" y2="270"/>
  <line class="link" x1="90" y1="270" x2="90" y2="130"/>
  <line class="link" x1="90" y1="130" x2="200" y2="80"/>
</svg>
